<svg xmlns="http://www.w3.org/2000/svg" viewBox="0 0 628.37 302.16"><defs><style>.cls-1{font-size:43.46px;fill:#878787;}.cls-1,.cls-5{font-family:Constantia, Constantia;}.cls-2{letter-spacing:-0.02em;}.cls-3{letter-spacing:-0.01em;}.cls-4{letter-spacing:-0.02em;}.cls-5{font-size:130.37px;fill:#1d1d1b;}.cls-6{fill:#9d9d9c;}.cls-7{fill:#a3cf9b;}.cls-8{fill:#73c3b6;}.cls-9{fill:#72c9e1;}</style></defs><title>Indicium Logo kleur met zwarte letters</title><g id="Body"><text class="cls-1" transform="translate(66.64 291.27)">IC<tspan class="cls-2" x="43.08" y="0">T</tspan><tspan x="68.88" y="0"> </tspan><tspan class="cls-3" x="79.78" y="0">S</tspan><tspan x="101.51" y="0">TUDI</tspan><tspan class="cls-4" x="207.88" y="0">E</tspan><tspan x="232.27" y="0">VERENIGING</tspan></text></g><g id="Head"><text class="cls-5" transform="translate(0 243.35)">INDICIUM</text></g><g id="Midden"><path class="cls-6" d="M337.36,88.9a4.8,4.8,0,0,0-4.66-.16c-4.37,1.73-2,6.91-2,6.91,8.68,5.06,13.74,14.63,12.44,25.67a26.36,26.36,0,1,1-39.86-25.68h-.05s1.9-4.44-1.31-6.66a5.14,5.14,0,0,0-5.88.29,35.68,35.68,0,1,0,41.36-.37Z" transform="translate(-2.82 -18.91)"/><path class="cls-6" d="M323,108c0-2.94-2.67-5.32-6-5.32s-6,2.38-6,5.32v25.14h0c0,2.94,2.67,5.32,6,5.32s6-2.38,6-5.32h0V108Z" transform="translate(-2.82 -18.91)"/><circle class="cls-6" cx="314.12" cy="70.84" r="5.97"/></g><g id="Onderdeel_1" data-name="Onderdeel 1"><path class="cls-7" d="M373.44,116.47h0v0a57.32,57.32,0,0,0-98.27-40h0a5.07,5.07,0,1,0,7.17,7.17h0v0a47.13,47.13,0,0,1,80.91,32.9h0a5.08,5.08,0,0,0,10.16,0h0S373.44,116.49,373.44,116.47Z" transform="translate(-2.82 -18.91)"/></g><g id="Onderdeel_2" data-name="Onderdeel 2"><path class="cls-8" d="M394.27,115.64A77,77,0,0,0,261.88,62l0,0a5,5,0,1,0,7.4,6.73,66.91,66.91,0,0,1,114.83,46.72c0,.33,0,.65,0,1v0a5.08,5.08,0,1,0,10.15,0s0-.06,0-.1C394.26,116.12,394.27,115.88,394.27,115.64Z" transform="translate(-2.82 -18.91)"/></g><g id="Onderdeel_3" data-name="Onderdeel 3"><path class="cls-9" d="M317.26,18.91A97.14,97.14,0,0,0,247.85,48h0a5.17,5.17,0,1,0,7.3,7.3h0a87.09,87.09,0,0,1,149.2,61.06h0a5.17,5.17,0,1,0,10.35,0A97.46,97.46,0,0,0,317.26,18.91Z" transform="translate(-2.82 -18.91)"/></g></svg>