<svg xmlns="http://www.w3.org/2000/svg" viewBox="0 0 199.03 95.71"><defs><style>.cls-1{font-size:13.76px;fill:#878787;}.cls-1,.cls-5{font-family:Constantia, Constantia;}.cls-2{letter-spacing:-0.02em;}.cls-3{letter-spacing:-0.01em;}.cls-4{letter-spacing:0em;}.cls-5{font-size:41.29px;fill:#fff;}.cls-6{fill:#9d9d9c;}.cls-7{fill:#a3cf9b;}.cls-8{fill:#73c3b6;}.cls-9{fill:#72c9e1;}</style></defs><title>Indicium Logo kleur met witte letters small</title><g id="Body"><text class="cls-1" transform="translate(21.11 92.26)">IC<tspan class="cls-2" x="13.64" y="0">T</tspan><tspan x="21.82" y="0"> </tspan><tspan class="cls-3" x="25.27" y="0">S</tspan><tspan x="32.15" y="0">TUDI</tspan><tspan class="cls-2" x="65.85" y="0">E</tspan><tspan class="cls-4" x="73.57" y="0">VERENIGING</tspan></text></g><g id="Head"><text class="cls-5" transform="translate(0 77.08)">INDICIUM</text></g><g id="Midden"><path class="cls-6" d="M106.79,25.25a1.52,1.52,0,0,0-1.48-.05c-1.38.55-.64,2.19-.64,2.19a8.09,8.09,0,0,1,3.94,8.13A8.35,8.35,0,1,1,96,27.38h0s.6-1.41-.41-2.11a1.63,1.63,0,0,0-1.86.09,11.3,11.3,0,1,0,13.1-.12Z" transform="translate(-0.82 -3.08)"/><path class="cls-6" d="M102.24,31.29a1.9,1.9,0,0,0-3.78,0v8h0a1.9,1.9,0,0,0,3.78,0h0v-8Z" transform="translate(-0.82 -3.08)"/><circle class="cls-6" cx="99.5" cy="22.44" r="1.89"/></g><g id="Onderdeel_1" data-name="Onderdeel 1"><path class="cls-7" d="M118.21,34h0A18.15,18.15,0,0,0,87.09,21.29h0a1.61,1.61,0,1,0,2.27,2.27h0A14.93,14.93,0,0,1,115,34h0a1.61,1.61,0,0,0,3.22,0h0Z" transform="translate(-0.82 -3.08)"/></g><g id="Onderdeel_2" data-name="Onderdeel 2"><path class="cls-8" d="M124.81,33.72a24.4,24.4,0,0,0-41.93-17h0a1.59,1.59,0,1,0,2.34,2.13,21.19,21.19,0,0,1,36.37,14.8c0,.1,0,.2,0,.31h0a1.61,1.61,0,1,0,3.22,0s0,0,0,0S124.81,33.79,124.81,33.72Z" transform="translate(-0.82 -3.08)"/></g><g id="Onderdeel_3" data-name="Onderdeel 3"><path class="cls-9" d="M100.42,3.08a30.77,30.77,0,0,0-22,9.21h0a1.64,1.64,0,1,0,2.31,2.31h0A27.59,27.59,0,0,1,128,33.95h0a1.64,1.64,0,1,0,3.28,0A30.87,30.87,0,0,0,100.42,3.08Z" transform="translate(-0.82 -3.08)"/></g></svg>